<?xml version="1.0" encoding="utf-8"?>
<!-- Generator: Adobe Illustrator 25.2.3, SVG Export Plug-In . SVG Version: 6.00 Build 0)  -->
<svg version="1.1" xmlns="http://www.w3.org/2000/svg" xmlns:xlink="http://www.w3.org/1999/xlink" x="0px" y="0px"
	 viewBox="0 0 756 489.6" style="enable-background:new 0 0 756 489.6;" xml:space="preserve">
<style type="text/css">
	.st0{fill:#69D2E7;}
	.st1{fill:#E0E4CC;}
	.st2{fill:none;stroke:#666666;stroke-miterlimit:10;}
	.st3{font-family:'AvenirNext-Bold';}
	.st4{font-size:13.0413px;}
	.st5{font-family:'AvenirNext-Italic';}
</style>
<g id="Layer_3">
	<g transform="scale(9, 9),translate(1, 5)">
		<g transform="translate(20, 20)">
			<g>
				<path class="st0" d="M16.5,16.7c-0.9-0.1-1.7-0.4-2.5-0.7l3.3-7.7c0.2,0.1,0.3,0.1,0.5,0.1L16.5,16.7z"/>
				<path class="st0" d="M14,16c-0.8-0.3-1.5-0.8-2.2-1.3L16.9,8c0.1,0.1,0.3,0.2,0.4,0.3L14,16z"/>
				<path class="st0" d="M12.2,14.1c-0.6-0.5-1.2-1.1-1.7-1.7l6-4.8c0.1,0.1,0.2,0.2,0.4,0.3L12.2,14.1z"/>
				<path class="st0" d="M9.9,12.8c-0.5-0.7-1-1.4-1.3-2.2l7.7-3.4c0.1,0.2,0.2,0.3,0.3,0.4L9.9,12.8z"/>
				<path class="st0" d="M5.8,11.9c-0.5-1-0.8-2.1-1-3.2l11.4-2c0,0.2,0.1,0.3,0.1,0.5L5.8,11.9z"/>
				<path class="st0" d="M6.5,8.4c-0.2-1-0.2-1.9-0.1-2.9l9.7,0.8c0,0.2,0,0.3,0,0.5L6.5,8.4z"/>
				<path class="st0" d="M5.8,5.4c0.1-1,0.3-2,0.6-3l9.8,3.3c-0.1,0.2-0.1,0.3-0.1,0.5L5.8,5.4z"/>
				<path class="st0" d="M7.6,2.8c0.3-0.9,0.7-1.7,1.2-2.5l7.6,5c-0.1,0.1-0.2,0.3-0.2,0.4L7.6,2.8z"/>
				<path class="st0" d="M9.4,0.7c0.5-0.7,1-1.4,1.7-2l5.7,6.2c-0.1,0.1-0.2,0.2-0.3,0.4L9.4,0.7z"/>
				<path class="st0" d="M4.9-7.9c1.2-1.1,2.5-2,3.9-2.8l8.3,15.3c-0.1,0.1-0.3,0.2-0.4,0.3L4.9-7.9z"/>
				<path class="st0" d="M9.6-9.3c1.3-0.7,2.7-1.2,4.1-1.6l3.9,15.3c-0.2,0-0.3,0.1-0.5,0.2L9.6-9.3z"/>
				<path class="st0" d="M13.3-12.4c1.6-0.4,3.2-0.6,4.8-0.6V4.4c-0.2,0-0.3,0-0.5,0.1L13.3-12.4z"/>
				<path class="st0" d="M18.1-12.2c1.5,0,3.1,0.2,4.6,0.6L18.6,4.5c-0.2,0-0.3-0.1-0.5-0.1V-12.2z"/>
				<path class="st0" d="M22.9-12.4c1.6,0.4,3.1,1,4.5,1.8L19.1,4.6c-0.1-0.1-0.3-0.1-0.5-0.2L22.9-12.4z"/>
				<path class="st0" d="M27-10c1.4,0.7,2.6,1.6,3.8,2.7L19.5,4.9c-0.1-0.1-0.3-0.2-0.4-0.3L27-10z"/>
				<path class="st0" d="M30.5-7c1.1,1,2.1,2.2,2.9,3.5L19.8,5.3c-0.1-0.1-0.2-0.3-0.3-0.4L30.5-7z"/>
				<path class="st0" d="M35.4-4.8c0.9,1.4,1.7,3,2.2,4.6L20,5.7c-0.1-0.2-0.1-0.3-0.2-0.4L35.4-4.8z"/>
				<path class="st0" d="M37.9-0.3c0.6,1.6,0.9,3.3,1,5.1L20.1,6.2c0-0.2,0-0.3-0.1-0.5L37.9-0.3z"/>
				<path class="st0" d="M37.9,4.8c0.1,1.6,0.1,3.3-0.2,4.9l-17.5-3c0-0.2,0-0.3,0-0.5L37.9,4.8z"/>
				<path class="st0" d="M36.5,9.5c-0.3,1.5-0.7,3-1.3,4.4L20,7.2c0.1-0.2,0.1-0.3,0.1-0.5L36.5,9.5z"/>
				<path class="st0" d="M33.2,13.1c-0.6,1.3-1.3,2.4-2.1,3.5l-11.4-9c0.1-0.1,0.2-0.3,0.3-0.4L33.2,13.1z"/>
				<path class="st0" d="M32.1,17.4c-0.9,1.2-2,2.2-3.1,3.1L19.3,8c0.1-0.1,0.3-0.2,0.4-0.3L32.1,17.4z"/>
				<path class="st0" d="M27.9,19.1c-1.1,0.8-2.2,1.5-3.4,2L18.9,8.2c0.2-0.1,0.3-0.1,0.4-0.3L27.9,19.1z"/>
				<path class="st0" d="M24.1,20.3c-1.2,0.5-2.4,0.8-3.6,1l-2-12.9c0.2,0,0.3-0.1,0.5-0.1L24.1,20.3z"/>
			</g>
			<g>
				<path class="st1" d="M16.5,16.7c-0.9-0.1-1.7-0.4-2.5-0.7C14.8,16.3,15.6,16.5,16.5,16.7z"/>
				<path class="st1" d="M14,16c-0.8-0.3-1.5-0.8-2.2-1.3C12.5,15.2,13.2,15.6,14,16z"/>
				<path class="st1" d="M12.2,14.1c-0.6-0.5-1.2-1.1-1.7-1.7C11,13,11.6,13.6,12.2,14.1z"/>
				<path class="st1" d="M9.9,12.8c-0.5-0.7-1-1.4-1.3-2.2C9,11.4,9.4,12.2,9.9,12.8z"/>
				<path class="st1" d="M5.8,11.9c-0.5-1-0.8-2.1-1-3.2C5,9.8,5.3,10.9,5.8,11.9z"/>
				<path class="st1" d="M6.5,8.4c-0.2-1-0.2-1.9-0.1-2.9C6.3,6.4,6.4,7.4,6.5,8.4z"/>
				<path class="st1" d="M5.8,5.4c0.1-1,0.3-2,0.6-3C6.1,3.4,5.9,4.4,5.8,5.4z"/>
				<path class="st1" d="M7.6,2.8c0.3-0.9,0.7-1.7,1.2-2.5C8.3,1.1,7.9,1.9,7.6,2.8z"/>
				<path class="st1" d="M9.4,0.7c0.5-0.7,1-1.4,1.7-2C10.4-0.7,9.9,0,9.4,0.7z"/>
				<path class="st1" d="M2.3-10.7c1.4-1.3,3-2.4,4.7-3.4l1.8,3.4C7.4-9.9,6.1-9,4.9-7.9L2.3-10.7z"/>
				<path class="st1" d="M7.8-12.6c1.6-0.9,3.3-1.5,5-2l0.9,3.7c-1.4,0.4-2.8,0.9-4.1,1.6L7.8-12.6z"/>
				<path class="st1" d="M12.5-15.9c1.8-0.5,3.7-0.7,5.6-0.7v3.5c-1.6,0-3.2,0.2-4.8,0.6L12.5-15.9z"/>
				<path class="st1" d="M18.1-16.9c1.9,0,3.9,0.2,5.7,0.7l-1.1,4.5c-1.5-0.4-3-0.6-4.6-0.6V-16.9z"/>
				<path class="st1" d="M24.2-17.4c2,0.5,3.9,1.2,5.7,2.2l-2.4,4.5c-1.4-0.8-2.9-1.4-4.5-1.8L24.2-17.4z"/>
				<path class="st1" d="M29.2-14.1c1.7,0.9,3.3,2.1,4.7,3.4l-3.1,3.4c-1.1-1.1-2.4-2-3.8-2.7L29.2-14.1z"/>
				<path class="st1" d="M33.9-10.7c1.4,1.3,2.7,2.8,3.7,4.4l-4.2,2.7C32.6-4.8,31.6-6,30.5-7L33.9-10.7z"/>
				<path class="st1" d="M38.9-7.1c1.1,1.7,2,3.6,2.7,5.5l-4.1,1.4c-0.5-1.6-1.3-3.2-2.2-4.6L38.9-7.1z"/>
				<path class="st1" d="M43-2.1c0.7,2.1,1.1,4.2,1.3,6.4L39,4.8c-0.1-1.7-0.5-3.4-1-5.1L43-2.1z"/>
				<path class="st1" d="M42.9,4.4c0.2,2.1,0.1,4.1-0.3,6.2l-4.9-0.8c0.3-1.6,0.4-3.3,0.2-4.9L42.9,4.4z"/>
				<path class="st1" d="M40.1,10.2c-0.3,1.8-0.9,3.6-1.6,5.3L35.2,14c0.6-1.4,1.1-2.9,1.3-4.4L40.1,10.2z"/>
				<path class="st1" d="M39.1,15.7c-0.8,1.7-1.8,3.4-2.9,4.9l-5.1-4c0.8-1.1,1.6-2.3,2.1-3.5L39.1,15.7z"/>
				<path class="st1" d="M37.1,21.4c-1.2,1.6-2.7,3-4.3,4.2L29,20.5c1.2-0.9,2.2-1.9,3.1-3.1L37.1,21.4z"/>
				<path class="st1" d="M30.6,22.7c-1.4,1-2.8,1.9-4.4,2.6l-1.8-4.1c1.2-0.5,2.4-1.2,3.4-2L30.6,22.7z"/>
				<path class="st1" d="M25.3,23.1c-1.4,0.6-2.9,1-4.3,1.3l-0.5-3.1c1.2-0.2,2.4-0.5,3.6-1L25.3,23.1z"/>
			</g>
		</g>
	</g>
</g>
<g id="Layer_2">
	<polyline class="st2" points="328.6,362.8 280.1,467.4 127,467.7 	"/>
	<polyline class="st2" points="228.6,124.9 150.2,90.5 20.7,90.8 	"/>
	<text transform="matrix(1.0101 0 0 1 20.6822 65.5007)"><tspan x="0" y="0" class="st3 st4">9am</tspan><tspan x="0" y="15.6" class="st5 st4">peak gust of 36mph</tspan></text>
	<text transform="matrix(1.0101 0 0 1 126.1304 443.1908)"><tspan x="0" y="0" class="st3 st4">1am</tspan><tspan x="0" y="15.6" class="st5 st4">wind speed of 7mph</tspan></text>
	<path class="st2" d="M219,82c41.2-30.1,91.9-47.9,146.9-47.9c54.4,0,104.7,17.4,145.7,47c62.6,45.2,103.4,118.9,103.4,202
		c0,68.8-27.9,131-72.9,176.1"/>
	<polyline class="st2" points="511.5,81.1 535.4,68.6 732.1,68.6 	"/>
	<text transform="matrix(1.0101 0 0 1 540.796 28.5391)"><tspan x="0" y="0" class="st3 st4">9am - 10pm</tspan><tspan x="0" y="15.6" class="st5 st4">sustained wind speed of 23mph</tspan><tspan x="0" y="31.3" class="st5 st4">gusts reaching 40mph</tspan></text>
	<line class="st2" x1="226.6" y1="93" x2="210.9" y2="69.6"/>
	<line class="st2" x1="551.7" y1="467.9" x2="532.7" y2="450.5"/>
</g>
</svg>
